<svg width="627" height="880" viewBox="0 0 627 880" fill="none" xmlns="http://www.w3.org/2000/svg">
<path d="M-3.46081 879.448C-3.4741 879.45 -3.48716 879.451 -3.5 879.452V1.87087L-3.00811 1.86891L-0.0913963 1.85743C2.4777 1.84738 6.27836 1.83263 11.2046 1.81386C21.0571 1.77632 35.4121 1.7227 53.4216 1.65834C89.4408 1.52964 140.079 1.35803 198.553 1.18643C315.382 0.843562 463.494 0.5007 588.798 0.500001C642.87 202.742 632.875 358.765 587.5 479.042C542.096 599.394 461.251 684.005 373.617 743.336C285.98 802.669 191.563 836.713 119.047 855.923C82.7903 865.527 52.0131 871.423 30.3018 874.917C19.4462 876.663 10.8574 877.81 4.98377 878.52C2.04694 878.875 -0.211074 879.12 -1.73423 879.277C-2.49581 879.356 -3.07367 879.412 -3.46081 879.448Z" fill="#1c1c1c" stroke="black"/>
</svg>
