<?xml version="1.0" encoding="utf-8"?>
<svg xmlns="http://www.w3.org/2000/svg" id="Layer_1" style="enable-background:new 0 0 146 30;" version="1.1" viewBox="0 0 146 30" x="0px" y="0px">
<style type="text/css">
	.st0{fill-rule:evenodd;clip-rule:evenodd;fill:#FFFFFF;}
</style>
<path class="st0" d="M2.2,9.3v14.5H5v-5.9h4.7v-2.6H5v-3.3h5V9.3H2.2z"/>
<path class="st0" d="M17,15.1c-1.8,0-3.3,1.6-3.3,3.2c0,1.7,1.4,3.2,3.3,3.2c2,0,3.4-1.4,3.4-3.2C20.4,16.5,18.9,15.1,17,15.1z&#xA;	 M17,24.1c-3.3,0-6.1-2.6-6.1-5.8c0-3.2,2.8-5.8,6.2-5.8c3.4,0,6,2.7,6,5.8C23.2,21.5,20.4,24.1,17,24.1z"/>
<path class="st0" d="M30,15.1c-1.8,0-3.3,1.6-3.3,3.2c0,1.7,1.4,3.2,3.3,3.2c2,0,3.4-1.4,3.4-3.2C33.4,16.5,31.9,15.1,30,15.1z&#xA;	 M30,24.1c-3.3,0-6.1-2.6-6.1-5.8c0-3.2,2.8-5.8,6.2-5.8c3.4,0,6,2.7,6,5.8C36.1,21.5,33.4,24.1,30,24.1z"/>
<path class="st0" d="M42.9,15.1c-1.8,0-3.3,1.5-3.3,3.1c0,1.8,1.4,3.3,3.4,3.3c1.9,0,3.4-1.5,3.4-3.2C46.3,16.5,44.8,15.1,42.9,15.1&#xA;	z M46.4,23.7v-1.5h0c-0.8,1.2-2.3,1.8-3.8,1.8c-3.3,0-5.7-2.8-5.7-5.7c0-2.9,1.9-5.7,5.8-5.8c1.3,0,2.7,0.5,3.5,1.5V9.3h2.8v14.5&#xA;	L46.4,23.7L46.4,23.7z"/>
<path class="st0" d="M57.1,22.9c-0.8,0.7-1.9,1.1-3,1.1c-2.4,0-4.1-1.5-4.2-3.8h2.8c0.2,0.7,0.6,1.2,1.5,1.2c0.7,0,1.3-0.4,1.3-1&#xA;	c0-0.9-1.2-1.2-2-1.4c-1.8-0.5-3.2-1.4-3.2-3.2c0-2,1.9-3.4,3.9-3.4c1.9,0,3.7,1.5,3.7,3.3h-2.7c-0.1-0.5-0.5-0.8-1.1-0.8&#xA;	c-0.6,0-1.1,0.3-1.1,0.9c0,0.7,1,0.9,1.6,1.1c1.8,0.5,3.6,1.1,3.6,3.3C58.2,21.4,57.9,22.2,57.1,22.9z"/>
<path class="st0" d="M62.6,15.2v8.5h-2.8v-8.5h-1.3v-2.3h1.3V9.3h2.8v3.6h1.7v2.3H62.6z"/>
<path class="st0" d="M72.9,23.7v-1.1h0c-0.6,1.1-1.7,1.5-2.9,1.5c-1.4,0-2.7-0.5-3.6-1.5c-1-1-1.1-2.2-1.1-3.6v-6.1H68v5.3&#xA;	c0,0.7,0,1.6,0.3,2.2c0.4,0.7,1.1,1.1,2,1.1c2.1,0,2.4-1.8,2.4-3.3v-5.3h2.8v10.9L72.9,23.7L72.9,23.7z"/>
<path class="st0" d="M80.1,12.9h1.6v2.3h-1.6v8.5h-2.8v-8.5h-1v-2.3h1c0.1-2.1,1.4-3.9,3.8-3.9l0.8,0v2.6&#xA;	C80.7,11.6,80.2,11.7,80.1,12.9z"/>
<path class="st0" d="M86,12.9h1.6v2.3H86v8.5h-2.8v-8.5h-1v-2.3h1C83.3,10.8,84.6,9,87,9l0.8,0v2.6C86.6,11.6,86.1,11.7,86,12.9z"/>
<path class="st0" d="M95,22.9c-0.8,0.7-1.9,1.1-3,1.1c-2.3,0-4.1-1.5-4.2-3.8h2.8c0.2,0.7,0.6,1.2,1.5,1.2c0.7,0,1.3-0.4,1.3-1&#xA;	c0-0.9-1.2-1.2-1.9-1.4c-1.8-0.5-3.2-1.4-3.2-3.2c0-2,1.8-3.4,3.9-3.4c1.9,0,3.7,1.5,3.7,3.3h-2.7c-0.1-0.5-0.5-0.8-1.1-0.8&#xA;	c-0.6,0-1.1,0.3-1.1,0.9c0,0.7,1,0.9,1.6,1.1c1.9,0.5,3.6,1.1,3.6,3.3C96.2,21.4,95.8,22.2,95,22.9z"/>
<path class="st0" d="M130.6,24l-6-9.8V24H122V10.5h3l6,9.8v-9.8h2.6V24H130.6z"/>
<path class="st0" d="M135,24v-2.1l5.4-8.9h-5.1v-2.4h8.2v2.2l-5.4,8.8h5.8V24H135z"/>
<path class="st0" d="M117.4,6l-0.7-0.1c-0.2,0-0.4,0.1-0.5,0.2l-0.8,0.8c-0.1,0.1-0.3,0.1-0.5,0l-1.1-0.8c-0.1-0.1-0.3-0.3-0.4-0.4&#xA;	l-0.8-1.5c-0.1-0.1-0.3-0.2-0.4-0.1l-0.4,0.3c-0.1,0.1-0.3,0-0.4-0.1l-1.1-2.7c-0.1-0.1-0.2-0.4-0.4-0.4L108,0&#xA;	c-0.1-0.1-0.2,0-0.1,0.1l1.5,2.6l1.9,3.9c0.1,0.1,0.1,0.4,0.1,0.6l0,0.1c-2.2-0.4-4.9,0-6.9,1.1c-3.2,1.7-5,5.2-4.8,8.9&#xA;	c0,0.9,0.1,1.6,0.4,2.4c0,0.1,0.2,0.5,0.4,0.3l0.1-0.1c0.6-0.6,1.7-1.5,1.7-2.1c-0.2-1.5,0.1-3.3,0.8-4.6c2.9-5.4,10.2-5.3,12.4-3.3&#xA;	c-2-0.6-3.6-0.3-5.1,0.4c-0.2,0.1-0.2,0.4,0,0.5l1.8,1.1c0.1,0.1,0.2,0.3,0.1,0.4l-0.8,1.9c-0.1,0.2,0,0.4,0.1,0.5l0.8,0.5&#xA;	c0.1,0.1,0.3,0.1,0.4-0.1l2.4-3.8c0.1-0.1,0.2-0.4,0.2-0.6l0.2-1c0-0.2,0.2-0.3,0.3-0.3l0.5,0c0.2,0,0.3-0.1,0.4-0.3l1-2.8&#xA;	C117.7,6.1,117.6,6,117.4,6z"/>
<path class="st0" d="M100.9,28.3c-0.2-0.1-0.3-0.1-0.4,0.1l-0.4,1c-0.1,0.2,0,0.2,0.2,0.2l1.2-0.5c0.2-0.1,0.2-0.2,0-0.3L100.9,28.3&#xA;	z"/>
<path class="st0" d="M117.8,11.5c-0.1-0.1-0.2-0.2-0.3-0.2s-0.2,0.1-0.3,0.2c-0.1,0.2-0.2,0.5-0.4,0.7c-0.4,0.6-0.7,1.2-0.5,2&#xA;	c1,3.8-0.3,7.2-3.5,9.1c-2.2,1.3-6.9,1.8-10.2-1.2c0-0.1-0.1-0.1-0.1-0.1c3.8,1.1,5.8-0.5,6.4-1.9c0.1-0.3-0.2-1-0.2-1&#xA;	c0-0.2,0-0.4,0.1-0.6c0,0,2.3-2.6,2.4-2.7c0.1-0.1,0.1-0.3,0-0.4c-0.1-0.1-0.4-0.2-0.5-0.3c-0.1-0.1-0.2-0.2-0.2-0.4&#xA;	c0.1-0.2,0.3-1.1,0.3-1.2c0-0.2-0.2-0.2-0.4-0.1c-0.1,0.1-1.2,0.6-1.4,0.7c-0.2,0.1-0.4,0.1-0.4,0c0-0.1-0.1-0.5-0.2-0.7&#xA;	c0-0.1-0.1-0.4-0.3-0.3c-0.1,0.1-1,0.3-1.2,0.8l-0.2,1.3c0,0.2-0.1,0.4-0.2,0.6l-1.1,2.2c-0.1,0.1-0.2,0.4-0.4,0.5l-3.6,2.9&#xA;	c-0.1,0.1-0.3,0.3-0.4,0.4l-2.3,2.9c-0.1,0.1-0.2,0.4-0.2,0.5l-0.2,1.5c0,0.2,0.1,0.3,0.3,0.3l2,0.2c0.2,0,0.4,0.1,0.6,0.1l1.7,0.5&#xA;	c0.2,0,0.4,0,0.5-0.1l1.7-1.7c0.1-0.1,0.2-0.4,0.3-0.7c1.1,0.5,2.6,0.8,4.2,0.8c0.9,0,1.9-0.1,2.8-0.4c4.3-1.5,6.7-4.9,6.6-9.5&#xA;	C119,14.8,118.4,12.6,117.8,11.5z"/>
</svg>