<?xml version="1.0" encoding="utf-8"?>
<svg xmlns="http://www.w3.org/2000/svg" fill="none" height="30" viewBox="0 0 132 30" width="132">
<path clip-rule="evenodd" d="M3 29.44H128.57V1H3V29.44ZM6.07 26.39H125.5V4.05H6.07V26.39Z" fill="white" fill-rule="evenodd"/>
<path clip-rule="evenodd" d="M16.49 15.19V12.28H20.13C20.62 12.28 21.02 12.67 21.02 13.16V14.32C21.02 14.8 20.62 15.2 20.13 15.2H16.49V15.19ZM21.78 9.25998H12.68V21.22H16.5V18.23H21.78C23.23 18.23 24.4 17.07 24.4 15.65V11.85C24.4 10.42 23.23 9.25998 21.78 9.25998Z" fill="white" fill-rule="evenodd"/>
<path clip-rule="evenodd" d="M84.08 21.22L84.87 19.11H89.98L90.76 21.22H94.63L90.21 9.25998H84.68L80.13 21.22H84.08ZM85.88 16.44L87.34 12.56H87.55L88.99 16.44H85.88Z" fill="white" fill-rule="evenodd"/>
<path clip-rule="evenodd" d="M53.76 21.22H57.73V16.08C57.73 14.9 58.03 14.03 59.79 14.03C61.06 14.03 61.4 14.51 61.43 15.47V21.22H65.38V14.75C65.38 12.77 63.97 11.79 61.43 11.79C59.85 11.79 58.61 12.03 58.01 13.66H57.74V11.89H53.77V21.22" fill="white" fill-rule="evenodd"/>
<path clip-rule="evenodd" d="M39.56 9.25998V21.22H43.38V18.66L44.8 17.2L48.35 21.22H53.08L47.34 14.69L52.82 9.25998H48.03L43.38 14.04V9.25998H39.56Z" fill="white" fill-rule="evenodd"/>
<path clip-rule="evenodd" d="M100.01 17.92L96.81 9.25998H92.94L97.35 21.22H102.88L107.44 9.25998H103.49L100.22 17.92H100.01Z" fill="white" fill-rule="evenodd"/>
<path clip-rule="evenodd" d="M53.75 10.47L56.14 8.10999H60.16L57.73 10.47H53.75Z" fill="white" fill-rule="evenodd"/>
<path clip-rule="evenodd" d="M119.65 12.04V9.25998H108.02V21.22H119.79V18.04H111.84V16.36H119.24V13.71H111.84V12.04H119.65Z" fill="white" fill-rule="evenodd"/>
<path clip-rule="evenodd" d="M27.94 21.22L28.73 19.11H33.84L34.62 21.22H38.49L34.08 9.25998H28.54L23.99 21.22H27.94ZM29.74 16.44L31.2 12.56H31.41L32.85 16.44H29.74Z" fill="white" fill-rule="evenodd"/>
<path clip-rule="evenodd" d="M71.14 12.76C71.14 13.45 71.29 13.51 71.95 13.6C72.16 13.63 72.43 13.64 72.75 13.67L74.39 13.77C78.79 14.03 79.87 14.33 79.87 17.41C79.87 21.36 79 21.38 73.44 21.38C72.13 21.38 71.08 21.38 70.24 21.32C67.61 21.14 67.17 20.29 67.14 17.59V17.22H70.95V17.54C70.97 18.61 71.24 18.72 73.43 18.72C75.82 18.72 75.89 18.55 75.89 17.62C75.89 16.71 75.68 16.6 73.82 16.5L72.95 16.45C71.84 16.38 70.92 16.33 70.17 16.25C67.85 15.99 67.15 15.33 67.15 12.78C67.15 9.30999 68.24 9.07999 73.43 9.07999C78.46 9.07999 79.45 9.12999 79.45 12.47V12.98H75.64C75.63 11.5 74.8 11.74 73.47 11.74C71.35 11.74 71.14 11.84 71.14 12.76Z" fill="white" fill-rule="evenodd"/>
</svg>