<?xml version="1.0" standalone="no"?>
<!DOCTYPE svg PUBLIC "-//W3C//DTD SVG 20010904//EN"
 "http://www.w3.org/TR/2001/REC-SVG-20010904/DTD/svg10.dtd">
<svg version="1.0" xmlns="http://www.w3.org/2000/svg"
 width="133.000000pt" height="133.000000pt" viewBox="0 0 133.000000 133.000000"
 preserveAspectRatio="xMidYMid meet">
<metadata>
Created by potrace 1.11, written by Peter Selinger 2001-2013
</metadata>
<g transform="translate(0.000000,133.000000) scale(0.100000,-0.100000)"
fill="#000000" stroke="none">
<path d="M825 960 c-3 -5 -15 -7 -26 -5 -26 5 -89 -20 -89 -34 0 -13 17 -15
24 -3 6 10 94 8 119 -3 25 -11 50 -63 43 -91 -4 -13 -7 -27 -8 -31 -1 -5 -10
-17 -21 -28 -24 -26 -48 -71 -41 -78 7 -7 67 13 75 25 3 6 10 8 14 6 17 -7 67
70 68 106 1 40 -20 86 -40 86 -8 0 -12 4 -8 9 6 11 -33 36 -42 27 -4 -3 -11
-2 -17 3 -20 14 -45 20 -51 11z"/>
<path d="M609 933 c-1 -5 -1 -12 0 -16 1 -5 -3 -6 -9 -2 -25 15 -168 -121
-224 -214 -54 -89 -78 -172 -82 -286 -2 -55 0 -116 5 -135 l8 -35 17 60 c10
33 24 80 31 105 19 68 52 145 101 243 47 94 145 250 163 261 6 4 11 11 11 17
0 11 -19 12 -21 2z"/>
<path d="M675 914 c-11 -8 -19 -18 -18 -22 0 -4 -4 -6 -10 -4 -7 2 -9 0 -5 -3
4 -4 -3 -16 -15 -26 -12 -10 -17 -18 -10 -19 6 0 13 3 15 8 2 4 17 18 33 33
17 14 31 30 33 37 3 15 2 15 -23 -4z"/>
<path d="M592 805 c-7 -14 -12 -31 -12 -38 1 -7 7 3 16 22 17 39 13 54 -4 16z"/>
<path d="M571 734 c0 -11 3 -14 6 -6 3 7 2 16 -1 19 -3 4 -6 -2 -5 -13z"/>
<path d="M570 685 c0 -14 4 -25 9 -25 4 0 6 11 3 25 -2 14 -6 25 -8 25 -2 0
-4 -11 -4 -25z"/>
<path d="M1002 670 c-5 -3 -14 -21 -22 -40 -7 -19 -20 -43 -28 -52 -8 -10 -11
-18 -6 -18 10 0 -26 -22 -76 -46 -41 -19 -117 -21 -150 -4 -18 10 -21 10 -14
-2 4 -7 -7 -1 -25 15 -18 15 -37 27 -42 27 -5 0 -9 7 -9 15 0 8 -7 15 -16 15
-14 0 -14 -3 -3 -17 27 -37 92 -93 100 -87 5 3 9 0 9 -7 0 -7 2 -10 5 -7 3 3
22 0 41 -7 40 -14 127 -10 132 5 2 6 8 8 12 5 11 -7 77 34 107 66 23 25 52 87
59 127 4 20 1 22 -31 20 -20 -1 -39 -5 -43 -8z"/>
<path d="M577 638 c4 -7 8 -19 8 -27 0 -17 25 -28 25 -11 0 6 -5 8 -11 5 -6
-4 -10 -1 -8 6 3 26 -1 39 -12 39 -6 0 -7 -5 -2 -12z"/>
<path d="M448 534 c-33 -18 -37 -28 -6 -18 36 11 155 3 180 -12 4 -3 8 -2 8 1
0 13 -86 45 -120 44 -19 0 -47 -7 -62 -15z"/>
</g>
</svg>
